# xmcd CD database file
#
# Track frame offsets:
#	150
#	34780
#	55406
#	70535
#	82878
#	112025
#	130588
#	162944
#	185367
#	209887
#
# Disc length: 3260 seconds
#
# Revision: 0
# Processed by: cddbd v1.4PL0 Copyright (c) Steve Scherf et al.
# Submitted via: CDex 1.50
#
DISCID=870cba0a
DTITLE=Doug Poinier - Poiner Music
DYEAR=1999
DGENRE=Jazz
TTITLE0=Equinox
TTITLE1=Have You Met Miss Jones
TTITLE2=Recorda Me
TTITLE3=Oleo
TTITLE4=Footprints
TTITLE5=Blue Monk
TTITLE6=Love For Sale
TTITLE7=Little Sunflower
TTITLE8=Stars Fell On Alabama
TTITLE9=Blue For Davis Alexander
EXTD=YEAR: 1999
EXTT0=
EXTT1=
EXTT2=
EXTT3=
EXTT4=
EXTT5=
EXTT6=
EXTT7=
EXTT8=
EXTT9=
PLAYORDER=
